<?xml version="1.0" encoding="UTF-8" standalone="no"?>
<!DOCTYPE svg PUBLIC "-//W3C//DTD SVG 1.1//EN"
 "http://www.w3.org/Graphics/SVG/1.1/DTD/svg11.dtd">
<!-- Generated by graphviz version 12.0.0 (20240803.0821)
 -->
<!-- Title: snakemake_dag Pages: 1 -->
<svg width="676pt" height="404pt"
 viewBox="0.00 0.00 675.75 404.00" xmlns="http://www.w3.org/2000/svg" xmlns:xlink="http://www.w3.org/1999/xlink">
<g id="graph0" class="graph" transform="scale(1 1) rotate(0) translate(4 400)">
<title>snakemake_dag</title>
<polygon fill="white" stroke="none" points="-4,4 -4,-400 671.75,-400 671.75,4 -4,4"/>
<!-- 0 -->
<g id="node1" class="node">
<title>0</title>
<path fill="none" stroke="#d85656" stroke-width="2" d="M440,-36C440,-36 410,-36 410,-36 404,-36 398,-30 398,-24 398,-24 398,-12 398,-12 398,-6 404,0 410,0 410,0 440,0 440,0 446,0 452,-6 452,-12 452,-12 452,-24 452,-24 452,-30 446,-36 440,-36"/>
<text text-anchor="middle" x="425" y="-14.88" font-family="sans" font-size="10.00">all</text>
</g>
<!-- 1 -->
<g id="node2" class="node">
<title>1</title>
<path fill="none" stroke="#78d856" stroke-width="2" d="M328.25,-180C328.25,-180 157.75,-180 157.75,-180 151.75,-180 145.75,-174 145.75,-168 145.75,-168 145.75,-156 145.75,-156 145.75,-150 151.75,-144 157.75,-144 157.75,-144 328.25,-144 328.25,-144 334.25,-144 340.25,-150 340.25,-156 340.25,-156 340.25,-168 340.25,-168 340.25,-174 334.25,-180 328.25,-180"/>
<text text-anchor="middle" x="243" y="-158.88" font-family="sans" font-size="10.00">collect_segmentation_intermediates</text>
</g>
<!-- 1&#45;&gt;0 -->
<g id="edge2" class="edge">
<title>1&#45;&gt;0</title>
<path fill="none" stroke="grey" stroke-width="2" d="M266.05,-143.02C297.91,-118.16 355.6,-73.15 392.02,-44.73"/>
<polygon fill="grey" stroke="grey" stroke-width="2" points="394.02,-47.61 399.75,-38.7 389.71,-42.09 394.02,-47.61"/>
</g>
<!-- 13 -->
<g id="node14" class="node">
<title>13</title>
<path fill="none" stroke="#56a2d8" stroke-width="2" d="M447.62,-108C447.62,-108 402.38,-108 402.38,-108 396.38,-108 390.38,-102 390.38,-96 390.38,-96 390.38,-84 390.38,-84 390.38,-78 396.38,-72 402.38,-72 402.38,-72 447.62,-72 447.62,-72 453.62,-72 459.62,-78 459.62,-84 459.62,-84 459.62,-96 459.62,-96 459.62,-102 453.62,-108 447.62,-108"/>
<text text-anchor="middle" x="425" y="-86.88" font-family="sans" font-size="10.00">report_plot</text>
</g>
<!-- 1&#45;&gt;13 -->
<g id="edge24" class="edge">
<title>1&#45;&gt;13</title>
<path fill="none" stroke="grey" stroke-width="2" d="M289.4,-143.15C316.43,-132.76 350.44,-119.68 377.64,-109.22"/>
<polygon fill="grey" stroke="grey" stroke-width="2" points="378.7,-112.56 386.78,-105.7 376.19,-106.02 378.7,-112.56"/>
</g>
<!-- 2 -->
<g id="node3" class="node">
<title>2</title>
<path fill="none" stroke="#56d87b" stroke-width="2" d="M124,-252C124,-252 12,-252 12,-252 6,-252 0,-246 0,-240 0,-240 0,-228 0,-228 0,-222 6,-216 12,-216 12,-216 124,-216 124,-216 130,-216 136,-222 136,-228 136,-228 136,-240 136,-240 136,-246 130,-252 124,-252"/>
<text text-anchor="middle" x="68" y="-230.88" font-family="sans" font-size="10.00">get_chainsaw_clustering</text>
</g>
<!-- 2&#45;&gt;1 -->
<g id="edge6" class="edge">
<title>2&#45;&gt;1</title>
<path fill="none" stroke="grey" stroke-width="2" d="M112.61,-215.15C135.05,-206.18 162.49,-195.21 186.39,-185.64"/>
<polygon fill="grey" stroke="grey" stroke-width="2" points="187.37,-189.02 195.35,-182.06 184.77,-182.52 187.37,-189.02"/>
</g>
<!-- 2&#45;&gt;13 -->
<g id="edge25" class="edge">
<title>2&#45;&gt;13</title>
<path fill="none" stroke="grey" stroke-width="2" d="M76.71,-215.1C87.74,-194.46 108.77,-161.18 137,-144 176.56,-119.93 305.64,-103.28 376.82,-95.68"/>
<polygon fill="grey" stroke="grey" stroke-width="2" points="376.8,-99.2 386.39,-94.68 376.08,-92.23 376.8,-99.2"/>
</g>
<!-- 3 -->
<g id="node4" class="node">
<title>3</title>
<path fill="none" stroke="#d8c356" stroke-width="2" d="M390.25,-396C390.25,-396 345.75,-396 345.75,-396 339.75,-396 333.75,-390 333.75,-384 333.75,-384 333.75,-372 333.75,-372 333.75,-366 339.75,-360 345.75,-360 345.75,-360 390.25,-360 390.25,-360 396.25,-360 402.25,-366 402.25,-372 402.25,-372 402.25,-384 402.25,-384 402.25,-390 396.25,-396 390.25,-396"/>
<text text-anchor="middle" x="368" y="-374.88" font-family="sans" font-size="10.00">build_pdbs</text>
</g>
<!-- 3&#45;&gt;2 -->
<g id="edge8" class="edge">
<title>3&#45;&gt;2</title>
<path fill="none" stroke="grey" stroke-width="2" d="M333.05,-372.11C292.87,-365.45 225.8,-351.14 174,-324 143.27,-307.9 113.49,-281.65 93.36,-261.82"/>
<polygon fill="grey" stroke="grey" stroke-width="2" points="95.95,-259.47 86.42,-254.83 90.98,-264.39 95.95,-259.47"/>
</g>
<!-- 6 -->
<g id="node7" class="node">
<title>6</title>
<path fill="none" stroke="#56d8a2" stroke-width="2" d="M266,-252C266,-252 166,-252 166,-252 160,-252 154,-246 154,-240 154,-240 154,-228 154,-228 154,-222 160,-216 166,-216 166,-216 266,-216 266,-216 272,-216 278,-222 278,-228 278,-228 278,-240 278,-240 278,-246 272,-252 266,-252"/>
<text text-anchor="middle" x="216" y="-230.88" font-family="sans" font-size="10.00">get_merizo_clustering</text>
</g>
<!-- 3&#45;&gt;6 -->
<g id="edge10" class="edge">
<title>3&#45;&gt;6</title>
<path fill="none" stroke="grey" stroke-width="2" d="M348.75,-359.02C322.37,-334.37 274.79,-289.92 244.33,-261.47"/>
<polygon fill="grey" stroke="grey" stroke-width="2" points="247,-259.17 237.31,-254.9 242.22,-264.29 247,-259.17"/>
</g>
<!-- 9 -->
<g id="node10" class="node">
<title>9</title>
<path fill="none" stroke="#567bd8" stroke-width="2" d="M403.75,-252C403.75,-252 308.25,-252 308.25,-252 302.25,-252 296.25,-246 296.25,-240 296.25,-240 296.25,-228 296.25,-228 296.25,-222 302.25,-216 308.25,-216 308.25,-216 403.75,-216 403.75,-216 409.75,-216 415.75,-222 415.75,-228 415.75,-228 415.75,-240 415.75,-240 415.75,-246 409.75,-252 403.75,-252"/>
<text text-anchor="middle" x="356" y="-230.88" font-family="sans" font-size="10.00">segment_by_geostas</text>
</g>
<!-- 3&#45;&gt;9 -->
<g id="edge14" class="edge">
<title>3&#45;&gt;9</title>
<path fill="none" stroke="grey" stroke-width="2" d="M359.91,-359.27C355.74,-349.16 351.11,-336.13 349,-324 345.65,-304.72 347.31,-282.81 349.85,-265.56"/>
<polygon fill="grey" stroke="grey" stroke-width="2" points="353.27,-266.28 351.49,-255.84 346.37,-265.11 353.27,-266.28"/>
</g>
<!-- 10 -->
<g id="node11" class="node">
<title>10</title>
<path fill="none" stroke="#59d856" stroke-width="2" d="M441.75,-324C441.75,-324 370.25,-324 370.25,-324 364.25,-324 358.25,-318 358.25,-312 358.25,-312 358.25,-300 358.25,-300 358.25,-294 364.25,-288 370.25,-288 370.25,-288 441.75,-288 441.75,-288 447.75,-288 453.75,-294 453.75,-300 453.75,-300 453.75,-312 453.75,-312 453.75,-318 447.75,-324 441.75,-324"/>
<text text-anchor="middle" x="406" y="-302.88" font-family="sans" font-size="10.00">generate_amsm</text>
</g>
<!-- 3&#45;&gt;10 -->
<g id="edge15" class="edge">
<title>3&#45;&gt;10</title>
<path fill="none" stroke="grey" stroke-width="2" d="M377.59,-359.34C381.39,-352.34 385.85,-344.12 390.11,-336.28"/>
<polygon fill="grey" stroke="grey" stroke-width="2" points="393.14,-338.02 394.84,-327.56 386.99,-334.68 393.14,-338.02"/>
</g>
<!-- 12 -->
<g id="node13" class="node">
<title>12</title>
<path fill="none" stroke="#d87d56" stroke-width="2" d="M585.62,-252C585.62,-252 522.38,-252 522.38,-252 516.38,-252 510.38,-246 510.38,-240 510.38,-240 510.38,-228 510.38,-228 510.38,-222 516.38,-216 522.38,-216 522.38,-216 585.62,-216 585.62,-216 591.62,-216 597.62,-222 597.62,-228 597.62,-228 597.62,-240 597.62,-240 597.62,-246 591.62,-252 585.62,-252"/>
<text text-anchor="middle" x="554" y="-230.88" font-family="sans" font-size="10.00">build_nmd_file</text>
</g>
<!-- 3&#45;&gt;12 -->
<g id="edge17" class="edge">
<title>3&#45;&gt;12</title>
<path fill="none" stroke="grey" stroke-width="2" d="M403.06,-368.64C430.63,-360.71 468.8,-346.58 496,-324 515.53,-307.78 530.83,-283.28 540.8,-264.08"/>
<polygon fill="grey" stroke="grey" stroke-width="2" points="543.81,-265.89 545.1,-255.37 537.53,-262.79 543.81,-265.89"/>
</g>
<!-- 3&#45;&gt;13 -->
<g id="edge23" class="edge">
<title>3&#45;&gt;13</title>
<path fill="none" stroke="grey" stroke-width="2" d="M402.95,-367.41C424.38,-359.52 450.09,-345.99 463,-324 501.29,-258.79 464.65,-166.54 441.19,-120.11"/>
<polygon fill="grey" stroke="grey" stroke-width="2" points="444.42,-118.73 436.69,-111.49 438.22,-121.97 444.42,-118.73"/>
</g>
<!-- 4 -->
<g id="node5" class="node">
<title>4</title>
<path fill="none" stroke="#c6d856" stroke-width="2" d="M95.5,-324C95.5,-324 40.5,-324 40.5,-324 34.5,-324 28.5,-318 28.5,-312 28.5,-312 28.5,-300 28.5,-300 28.5,-294 34.5,-288 40.5,-288 40.5,-288 95.5,-288 95.5,-288 101.5,-288 107.5,-294 107.5,-300 107.5,-300 107.5,-312 107.5,-312 107.5,-318 101.5,-324 95.5,-324"/>
<text text-anchor="middle" x="68" y="-302.88" font-family="sans" font-size="10.00">chainsaw_qa</text>
</g>
<!-- 4&#45;&gt;2 -->
<g id="edge7" class="edge">
<title>4&#45;&gt;2</title>
<path fill="none" stroke="grey" stroke-width="2" d="M68,-287.34C68,-280.75 68,-273.08 68,-265.67"/>
<polygon fill="grey" stroke="grey" stroke-width="2" points="71.5,-265.93 68,-255.93 64.5,-265.93 71.5,-265.93"/>
</g>
<!-- 5 -->
<g id="node6" class="node">
<title>5</title>
<path fill="none" stroke="#9fd856" stroke-width="2" d="M103,-396C103,-396 33,-396 33,-396 27,-396 21,-390 21,-384 21,-384 21,-372 21,-372 21,-366 27,-360 33,-360 33,-360 103,-360 103,-360 109,-360 115,-366 115,-372 115,-372 115,-384 115,-384 115,-390 109,-396 103,-396"/>
<text text-anchor="middle" x="68" y="-374.88" font-family="sans" font-size="10.00">chainsaw_setup</text>
</g>
<!-- 5&#45;&gt;4 -->
<g id="edge9" class="edge">
<title>5&#45;&gt;4</title>
<path fill="none" stroke="grey" stroke-width="2" d="M68,-359.34C68,-352.75 68,-345.08 68,-337.67"/>
<polygon fill="grey" stroke="grey" stroke-width="2" points="71.5,-337.93 68,-327.93 64.5,-337.93 71.5,-337.93"/>
</g>
<!-- 6&#45;&gt;1 -->
<g id="edge5" class="edge">
<title>6&#45;&gt;1</title>
<path fill="none" stroke="grey" stroke-width="2" d="M222.81,-215.34C225.45,-208.51 228.54,-200.5 231.49,-192.83"/>
<polygon fill="grey" stroke="grey" stroke-width="2" points="234.67,-194.32 235.01,-183.73 228.14,-191.8 234.67,-194.32"/>
</g>
<!-- 6&#45;&gt;13 -->
<g id="edge21" class="edge">
<title>6&#45;&gt;13</title>
<path fill="none" stroke="grey" stroke-width="2" d="M278.76,-215.06C302.09,-206.62 327.99,-195.05 349,-180 355.47,-175.37 382.47,-143.09 402.46,-118.73"/>
<polygon fill="grey" stroke="grey" stroke-width="2" points="404.98,-121.17 408.6,-111.22 399.56,-116.74 404.98,-121.17"/>
</g>
<!-- 7 -->
<g id="node8" class="node">
<title>7</title>
<path fill="none" stroke="#56d8c9" stroke-width="2" d="M237.5,-324C237.5,-324 194.5,-324 194.5,-324 188.5,-324 182.5,-318 182.5,-312 182.5,-312 182.5,-300 182.5,-300 182.5,-294 188.5,-288 194.5,-288 194.5,-288 237.5,-288 237.5,-288 243.5,-288 249.5,-294 249.5,-300 249.5,-300 249.5,-312 249.5,-312 249.5,-318 243.5,-324 237.5,-324"/>
<text text-anchor="middle" x="216" y="-302.88" font-family="sans" font-size="10.00">merizo_qa</text>
</g>
<!-- 7&#45;&gt;6 -->
<g id="edge11" class="edge">
<title>7&#45;&gt;6</title>
<path fill="none" stroke="grey" stroke-width="2" d="M216,-287.34C216,-280.75 216,-273.08 216,-265.67"/>
<polygon fill="grey" stroke="grey" stroke-width="2" points="219.5,-265.93 216,-255.93 212.5,-265.93 219.5,-265.93"/>
</g>
<!-- 8 -->
<g id="node9" class="node">
<title>8</title>
<path fill="none" stroke="#56c9d8" stroke-width="2" d="M245,-396C245,-396 187,-396 187,-396 181,-396 175,-390 175,-384 175,-384 175,-372 175,-372 175,-366 181,-360 187,-360 187,-360 245,-360 245,-360 251,-360 257,-366 257,-372 257,-372 257,-384 257,-384 257,-390 251,-396 245,-396"/>
<text text-anchor="middle" x="216" y="-374.88" font-family="sans" font-size="10.00">merizo_setup</text>
</g>
<!-- 8&#45;&gt;7 -->
<g id="edge12" class="edge">
<title>8&#45;&gt;7</title>
<path fill="none" stroke="grey" stroke-width="2" d="M216,-359.34C216,-352.75 216,-345.08 216,-337.67"/>
<polygon fill="grey" stroke="grey" stroke-width="2" points="219.5,-337.93 216,-327.93 212.5,-337.93 219.5,-337.93"/>
</g>
<!-- 9&#45;&gt;1 -->
<g id="edge4" class="edge">
<title>9&#45;&gt;1</title>
<path fill="none" stroke="grey" stroke-width="2" d="M327.19,-215.15C313.65,-206.76 297.28,-196.62 282.59,-187.52"/>
<polygon fill="grey" stroke="grey" stroke-width="2" points="284.67,-184.7 274.33,-182.41 280.99,-190.65 284.67,-184.7"/>
</g>
<!-- 9&#45;&gt;13 -->
<g id="edge18" class="edge">
<title>9&#45;&gt;13</title>
<path fill="none" stroke="grey" stroke-width="2" d="M364.69,-215.35C369.76,-205.05 376.26,-191.8 382,-180 391.67,-160.14 402.49,-137.74 410.86,-120.38"/>
<polygon fill="grey" stroke="grey" stroke-width="2" points="413.96,-122 415.15,-111.47 407.66,-118.96 413.96,-122"/>
</g>
<!-- 10&#45;&gt;9 -->
<g id="edge13" class="edge">
<title>10&#45;&gt;9</title>
<path fill="none" stroke="grey" stroke-width="2" d="M393.38,-287.34C388.21,-280.1 382.09,-271.53 376.32,-263.45"/>
<polygon fill="grey" stroke="grey" stroke-width="2" points="379.21,-261.47 370.55,-255.37 373.51,-265.54 379.21,-261.47"/>
</g>
<!-- 10&#45;&gt;13 -->
<g id="edge22" class="edge">
<title>10&#45;&gt;13</title>
<path fill="none" stroke="grey" stroke-width="2" d="M414.09,-287.27C418.26,-277.16 422.89,-264.13 425,-252 432.83,-206.94 430.65,-153.71 428.06,-121.16"/>
<polygon fill="grey" stroke="grey" stroke-width="2" points="431.58,-121.23 427.22,-111.58 424.61,-121.84 431.58,-121.23"/>
</g>
<!-- 11 -->
<g id="node12" class="node">
<title>11</title>
<path fill="none" stroke="#d8a456" stroke-width="2" d="M655.75,-180C655.75,-180 560.25,-180 560.25,-180 554.25,-180 548.25,-174 548.25,-168 548.25,-168 548.25,-156 548.25,-156 548.25,-150 554.25,-144 560.25,-144 560.25,-144 655.75,-144 655.75,-144 661.75,-144 667.75,-150 667.75,-156 667.75,-156 667.75,-168 667.75,-168 667.75,-174 661.75,-180 655.75,-180"/>
<text text-anchor="middle" x="608" y="-158.88" font-family="sans" font-size="10.00">build_nmd_trajectory</text>
</g>
<!-- 11&#45;&gt;0 -->
<g id="edge1" class="edge">
<title>11&#45;&gt;0</title>
<path fill="none" stroke="grey" stroke-width="2" d="M584.82,-143.02C552.78,-118.16 494.78,-73.15 458.16,-44.73"/>
<polygon fill="grey" stroke="grey" stroke-width="2" points="460.43,-42.06 450.38,-38.69 456.14,-47.59 460.43,-42.06"/>
</g>
<!-- 11&#45;&gt;13 -->
<g id="edge19" class="edge">
<title>11&#45;&gt;13</title>
<path fill="none" stroke="grey" stroke-width="2" d="M561.35,-143.15C534.17,-132.76 499.97,-119.68 472.62,-109.22"/>
<polygon fill="grey" stroke="grey" stroke-width="2" points="474.01,-106 463.42,-105.69 471.51,-112.54 474.01,-106"/>
</g>
<!-- 12&#45;&gt;11 -->
<g id="edge16" class="edge">
<title>12&#45;&gt;11</title>
<path fill="none" stroke="grey" stroke-width="2" d="M567.63,-215.34C573.27,-208.01 579.97,-199.34 586.26,-191.18"/>
<polygon fill="grey" stroke="grey" stroke-width="2" points="589,-193.35 592.34,-183.3 583.46,-189.08 589,-193.35"/>
</g>
<!-- 12&#45;&gt;13 -->
<g id="edge20" class="edge">
<title>12&#45;&gt;13</title>
<path fill="none" stroke="grey" stroke-width="2" d="M544.93,-215.32C534.68,-196.38 516.7,-166.06 496,-144 486.51,-133.88 474.89,-124.32 463.83,-116.17"/>
<polygon fill="grey" stroke="grey" stroke-width="2" points="466.13,-113.51 455.95,-110.57 462.07,-119.22 466.13,-113.51"/>
</g>
<!-- 13&#45;&gt;0 -->
<g id="edge3" class="edge">
<title>13&#45;&gt;0</title>
<path fill="none" stroke="grey" stroke-width="2" d="M425,-71.34C425,-64.75 425,-57.08 425,-49.67"/>
<polygon fill="grey" stroke="grey" stroke-width="2" points="428.5,-49.93 425,-39.93 421.5,-49.93 428.5,-49.93"/>
</g>
</g>
</svg>
