<?xml version="1.0" encoding="UTF-8" standalone="no"?>
<!DOCTYPE svg PUBLIC "-//W3C//DTD SVG 1.1//EN"
 "http://www.w3.org/Graphics/SVG/1.1/DTD/svg11.dtd">
<!-- Generated by graphviz version 12.0.0 (20240803.0821)
 -->
<!-- Title: snakemake_dag Pages: 1 -->
<svg width="424pt" height="260pt"
 viewBox="0.00 0.00 424.00 260.00" xmlns="http://www.w3.org/2000/svg" xmlns:xlink="http://www.w3.org/1999/xlink">
<g id="graph0" class="graph" transform="scale(1 1) rotate(0) translate(4 256)">
<title>snakemake_dag</title>
<polygon fill="white" stroke="none" points="-4,4 -4,-256 420,-256 420,4 -4,4"/>
<!-- 0 -->
<g id="node1" class="node">
<title>0</title>
<path fill="none" stroke="#78d856" stroke-width="2" stroke-dasharray="5,2" d="M299.25,-36C299.25,-36 128.75,-36 128.75,-36 122.75,-36 116.75,-30 116.75,-24 116.75,-24 116.75,-12 116.75,-12 116.75,-6 122.75,0 128.75,0 128.75,0 299.25,0 299.25,0 305.25,0 311.25,-6 311.25,-12 311.25,-12 311.25,-24 311.25,-24 311.25,-30 305.25,-36 299.25,-36"/>
<text text-anchor="middle" x="214" y="-14.88" font-family="sans" font-size="10.00">collect_segmentation_intermediates</text>
</g>
<!-- 1 -->
<g id="node2" class="node">
<title>1</title>
<path fill="none" stroke="#56d87b" stroke-width="2" stroke-dasharray="5,2" d="M124,-108C124,-108 12,-108 12,-108 6,-108 0,-102 0,-96 0,-96 0,-84 0,-84 0,-78 6,-72 12,-72 12,-72 124,-72 124,-72 130,-72 136,-78 136,-84 136,-84 136,-96 136,-96 136,-102 130,-108 124,-108"/>
<text text-anchor="middle" x="68" y="-86.88" font-family="sans" font-size="10.00">get_chainsaw_clustering</text>
</g>
<!-- 1&#45;&gt;0 -->
<g id="edge1" class="edge">
<title>1&#45;&gt;0</title>
<path fill="none" stroke="grey" stroke-width="2" d="M105.22,-71.15C123.34,-62.47 145.37,-51.91 164.85,-42.56"/>
<polygon fill="grey" stroke="grey" stroke-width="2" points="166.36,-45.72 173.87,-38.24 163.33,-39.41 166.36,-45.72"/>
</g>
<!-- 2 -->
<g id="node3" class="node">
<title>2</title>
<path fill="none" stroke="#d8c356" stroke-width="2" stroke-dasharray="5,2" d="M282.75,-252C282.75,-252 145.25,-252 145.25,-252 139.25,-252 133.25,-246 133.25,-240 133.25,-240 133.25,-228 133.25,-228 133.25,-222 139.25,-216 145.25,-216 145.25,-216 282.75,-216 282.75,-216 288.75,-216 294.75,-222 294.75,-228 294.75,-228 294.75,-240 294.75,-240 294.75,-246 288.75,-252 282.75,-252"/>
<text text-anchor="middle" x="214" y="-237.25" font-family="sans" font-size="10.00">build_pdbs</text>
<text text-anchor="middle" x="214" y="-224.5" font-family="sans" font-size="10.00">protein_name: 5vde_example</text>
</g>
<!-- 2&#45;&gt;1 -->
<g id="edge4" class="edge">
<title>2&#45;&gt;1</title>
<path fill="none" stroke="grey" stroke-width="2" d="M195.51,-215.02C170.28,-190.48 124.86,-146.3 95.59,-117.84"/>
<polygon fill="grey" stroke="grey" stroke-width="2" points="98.12,-115.41 88.51,-110.95 93.24,-120.43 98.12,-115.41"/>
</g>
<!-- 5 -->
<g id="node6" class="node">
<title>5</title>
<path fill="none" stroke="#56d8a2" stroke-width="2" stroke-dasharray="5,2" d="M404,-108C404,-108 304,-108 304,-108 298,-108 292,-102 292,-96 292,-96 292,-84 292,-84 292,-78 298,-72 304,-72 304,-72 404,-72 404,-72 410,-72 416,-78 416,-84 416,-84 416,-96 416,-96 416,-102 410,-108 404,-108"/>
<text text-anchor="middle" x="354" y="-86.88" font-family="sans" font-size="10.00">get_merizo_clustering</text>
</g>
<!-- 2&#45;&gt;5 -->
<g id="edge7" class="edge">
<title>2&#45;&gt;5</title>
<path fill="none" stroke="grey" stroke-width="2" d="M244.66,-215.02C259.28,-205.63 276.48,-193.32 290,-180 308.32,-161.94 325.14,-138.14 336.93,-119.7"/>
<polygon fill="grey" stroke="grey" stroke-width="2" points="339.84,-121.64 342.16,-111.3 333.9,-117.94 339.84,-121.64"/>
</g>
<!-- 8 -->
<g id="node9" class="node">
<title>8</title>
<path fill="none" stroke="#567bd8" stroke-width="2" stroke-dasharray="5,2" d="M261.75,-108C261.75,-108 166.25,-108 166.25,-108 160.25,-108 154.25,-102 154.25,-96 154.25,-96 154.25,-84 154.25,-84 154.25,-78 160.25,-72 166.25,-72 166.25,-72 261.75,-72 261.75,-72 267.75,-72 273.75,-78 273.75,-84 273.75,-84 273.75,-96 273.75,-96 273.75,-102 267.75,-108 261.75,-108"/>
<text text-anchor="middle" x="214" y="-86.88" font-family="sans" font-size="10.00">segment_by_geostas</text>
</g>
<!-- 2&#45;&gt;8 -->
<g id="edge10" class="edge">
<title>2&#45;&gt;8</title>
<path fill="none" stroke="grey" stroke-width="2" d="M197.14,-215.45C189.06,-205.8 180.23,-193.15 176,-180 171.1,-164.77 171.1,-159.23 176,-144 178.87,-135.06 183.87,-126.35 189.32,-118.66"/>
<polygon fill="grey" stroke="grey" stroke-width="2" points="191.94,-121 195.29,-110.95 186.4,-116.72 191.94,-121"/>
</g>
<!-- 9 -->
<g id="node10" class="node">
<title>9</title>
<path fill="none" stroke="#59d856" stroke-width="2" stroke-dasharray="5,2" d="M268.75,-180C268.75,-180 197.25,-180 197.25,-180 191.25,-180 185.25,-174 185.25,-168 185.25,-168 185.25,-156 185.25,-156 185.25,-150 191.25,-144 197.25,-144 197.25,-144 268.75,-144 268.75,-144 274.75,-144 280.75,-150 280.75,-156 280.75,-156 280.75,-168 280.75,-168 280.75,-174 274.75,-180 268.75,-180"/>
<text text-anchor="middle" x="233" y="-158.88" font-family="sans" font-size="10.00">generate_amsm</text>
</g>
<!-- 2&#45;&gt;9 -->
<g id="edge12" class="edge">
<title>2&#45;&gt;9</title>
<path fill="none" stroke="grey" stroke-width="2" d="M218.79,-215.34C220.6,-208.67 222.72,-200.89 224.75,-193.39"/>
<polygon fill="grey" stroke="grey" stroke-width="2" points="228.11,-194.39 227.35,-183.82 221.35,-192.56 228.11,-194.39"/>
</g>
<!-- 3 -->
<g id="node4" class="node">
<title>3</title>
<path fill="none" stroke="#c6d856" stroke-width="2" stroke-dasharray="5,2" d="M78.5,-180C78.5,-180 23.5,-180 23.5,-180 17.5,-180 11.5,-174 11.5,-168 11.5,-168 11.5,-156 11.5,-156 11.5,-150 17.5,-144 23.5,-144 23.5,-144 78.5,-144 78.5,-144 84.5,-144 90.5,-150 90.5,-156 90.5,-156 90.5,-168 90.5,-168 90.5,-174 84.5,-180 78.5,-180"/>
<text text-anchor="middle" x="51" y="-158.88" font-family="sans" font-size="10.00">chainsaw_qa</text>
</g>
<!-- 3&#45;&gt;1 -->
<g id="edge5" class="edge">
<title>3&#45;&gt;1</title>
<path fill="none" stroke="grey" stroke-width="2" d="M55.29,-143.34C56.91,-136.67 58.8,-128.89 60.62,-121.39"/>
<polygon fill="grey" stroke="grey" stroke-width="2" points="63.98,-122.39 62.94,-111.84 57.18,-120.73 63.98,-122.39"/>
</g>
<!-- 4 -->
<g id="node5" class="node">
<title>4</title>
<path fill="none" stroke="#9fd856" stroke-width="2" stroke-dasharray="5,2" d="M86,-252C86,-252 16,-252 16,-252 10,-252 4,-246 4,-240 4,-240 4,-228 4,-228 4,-222 10,-216 16,-216 16,-216 86,-216 86,-216 92,-216 98,-222 98,-228 98,-228 98,-240 98,-240 98,-246 92,-252 86,-252"/>
<text text-anchor="middle" x="51" y="-230.88" font-family="sans" font-size="10.00">chainsaw_setup</text>
</g>
<!-- 4&#45;&gt;3 -->
<g id="edge6" class="edge">
<title>4&#45;&gt;3</title>
<path fill="none" stroke="grey" stroke-width="2" d="M51,-215.34C51,-208.75 51,-201.08 51,-193.67"/>
<polygon fill="grey" stroke="grey" stroke-width="2" points="54.5,-193.93 51,-183.93 47.5,-193.93 54.5,-193.93"/>
</g>
<!-- 5&#45;&gt;0 -->
<g id="edge2" class="edge">
<title>5&#45;&gt;0</title>
<path fill="none" stroke="grey" stroke-width="2" d="M318.31,-71.15C300.95,-62.47 279.85,-51.92 261.18,-42.59"/>
<polygon fill="grey" stroke="grey" stroke-width="2" points="262.84,-39.51 252.33,-38.17 259.71,-45.77 262.84,-39.51"/>
</g>
<!-- 6 -->
<g id="node7" class="node">
<title>6</title>
<path fill="none" stroke="#56d8c9" stroke-width="2" stroke-dasharray="5,2" d="M392.5,-180C392.5,-180 349.5,-180 349.5,-180 343.5,-180 337.5,-174 337.5,-168 337.5,-168 337.5,-156 337.5,-156 337.5,-150 343.5,-144 349.5,-144 349.5,-144 392.5,-144 392.5,-144 398.5,-144 404.5,-150 404.5,-156 404.5,-156 404.5,-168 404.5,-168 404.5,-174 398.5,-180 392.5,-180"/>
<text text-anchor="middle" x="371" y="-158.88" font-family="sans" font-size="10.00">merizo_qa</text>
</g>
<!-- 6&#45;&gt;5 -->
<g id="edge8" class="edge">
<title>6&#45;&gt;5</title>
<path fill="none" stroke="grey" stroke-width="2" d="M366.71,-143.34C365.09,-136.67 363.2,-128.89 361.38,-121.39"/>
<polygon fill="grey" stroke="grey" stroke-width="2" points="364.82,-120.73 359.06,-111.84 358.02,-122.39 364.82,-120.73"/>
</g>
<!-- 7 -->
<g id="node8" class="node">
<title>7</title>
<path fill="none" stroke="#56c9d8" stroke-width="2" stroke-dasharray="5,2" d="M400,-252C400,-252 342,-252 342,-252 336,-252 330,-246 330,-240 330,-240 330,-228 330,-228 330,-222 336,-216 342,-216 342,-216 400,-216 400,-216 406,-216 412,-222 412,-228 412,-228 412,-240 412,-240 412,-246 406,-252 400,-252"/>
<text text-anchor="middle" x="371" y="-230.88" font-family="sans" font-size="10.00">merizo_setup</text>
</g>
<!-- 7&#45;&gt;6 -->
<g id="edge9" class="edge">
<title>7&#45;&gt;6</title>
<path fill="none" stroke="grey" stroke-width="2" d="M371,-215.34C371,-208.75 371,-201.08 371,-193.67"/>
<polygon fill="grey" stroke="grey" stroke-width="2" points="374.5,-193.93 371,-183.93 367.5,-193.93 374.5,-193.93"/>
</g>
<!-- 8&#45;&gt;0 -->
<g id="edge3" class="edge">
<title>8&#45;&gt;0</title>
<path fill="none" stroke="grey" stroke-width="2" d="M214,-71.34C214,-64.75 214,-57.08 214,-49.67"/>
<polygon fill="grey" stroke="grey" stroke-width="2" points="217.5,-49.93 214,-39.93 210.5,-49.93 217.5,-49.93"/>
</g>
<!-- 9&#45;&gt;8 -->
<g id="edge11" class="edge">
<title>9&#45;&gt;8</title>
<path fill="none" stroke="grey" stroke-width="2" d="M228.21,-143.34C226.4,-136.67 224.28,-128.89 222.25,-121.39"/>
<polygon fill="grey" stroke="grey" stroke-width="2" points="225.65,-120.56 219.65,-111.82 218.89,-122.39 225.65,-120.56"/>
</g>
</g>
</svg>
